# xmcd
#
# Track frame offsets:
#  182
#  14795
#  36645
#  62470
#  84920
#  100670
#  125295
#  146720
#  176095
#
# Disc length: 2774 seconds
#
# Revision: 2
# Processed by: cddbd v1.5.1PL2 Copyright (c) Steve Scherf et al.
# Submitted via: Collectorz.com_Music_Collector 6.9
#
DISCID=780ad409
DTITLE=Various Artist - Salsa, The Calienta Compilaton
DYEAR=1996
DGENRE=Salsa
TTITLE0=Taka Taka-Ta - Irakere
TTITLE1=El Coco - Irakere
TTITLE2=Lo Que Me Paso En La - Adalberto Alvarez and Su Son
TTITLE3=Longina - Malena Burke and NG La Banda
TTITLE4=Santa Barbara - Celina Gonzalez
TTITLE5=Yo No Quiero Que Seas Celosa - Reve y Su Charangon
TTITLE6=Los Sitios Entero - NG La Banda
TTITLE7=La Protesta De Los Chivos - NG La Banda
TTITLE8=Coge El Camaron - La Origina De Manzanillo
EXTD=
EXTT0=
EXTT1=
EXTT2=
EXTT3=
EXTT4=
EXTT5=
EXTT6=
EXTT7=
EXTT8=
PLAYORDER=
